<svg xmlns="http://www.w3.org/2000/svg" xmlns:xlink="http://www.w3.org/1999/xlink" width="100" zoomAndPan="magnify" viewBox="0 0 75 74.999997" height="100" preserveAspectRatio="xMidYMid meet" version="1.0"><defs><clipPath id="eb8878bc6d"><path d="M 6.285156 4.558594 L 70.785156 4.558594 L 70.785156 15.058594 L 6.285156 15.058594 Z M 6.285156 4.558594 " clip-rule="nonzero"/></clipPath><clipPath id="ecb317e75a"><path d="M 6.289062 4.558594 L 70.785156 4.558594 L 70.785156 15.058594 L 6.289062 15.058594 Z M 6.289062 4.558594 " clip-rule="nonzero"/></clipPath><clipPath id="b191d43f84"><path d="M 6.285156 18.382812 L 62.535156 18.382812 L 62.535156 28.882812 L 6.285156 28.882812 Z M 6.285156 18.382812 " clip-rule="nonzero"/></clipPath><clipPath id="1d4a446e88"><path d="M 6.292969 18.382812 L 62.53125 18.382812 L 62.53125 28.882812 L 6.292969 28.882812 Z M 6.292969 18.382812 " clip-rule="nonzero"/></clipPath><clipPath id="775bc1124a"><path d="M 6.285156 32.378906 L 51.285156 32.378906 L 51.285156 42.878906 L 6.285156 42.878906 Z M 6.285156 32.378906 " clip-rule="nonzero"/></clipPath><clipPath id="76b62ffd97"><path d="M 6.289062 32.378906 L 51.285156 32.378906 L 51.285156 42.878906 L 6.289062 42.878906 Z M 6.289062 32.378906 " clip-rule="nonzero"/></clipPath><clipPath id="ec4cc4c155"><path d="M 6.285156 46.371094 L 62.535156 46.371094 L 62.535156 56.871094 L 6.285156 56.871094 Z M 6.285156 46.371094 " clip-rule="nonzero"/></clipPath><clipPath id="a34c697264"><path d="M 6.292969 46.371094 L 62.53125 46.371094 L 62.53125 56.871094 L 6.292969 56.871094 Z M 6.292969 46.371094 " clip-rule="nonzero"/></clipPath><clipPath id="9d809c7059"><path d="M 6.285156 60.367188 L 70.785156 60.367188 L 70.785156 70.867188 L 6.285156 70.867188 Z M 6.285156 60.367188 " clip-rule="nonzero"/></clipPath><clipPath id="1da0aed39b"><path d="M 6.289062 60.367188 L 70.785156 60.367188 L 70.785156 70.867188 L 6.289062 70.867188 Z M 6.289062 60.367188 " clip-rule="nonzero"/></clipPath></defs><g clip-path="url(#eb8878bc6d)"><path fill="#000000" d="M 6.289062 4.558594 L 70.785156 4.558594 L 70.785156 15.058594 L 6.289062 15.058594 L 6.289062 4.558594 " fill-opacity="1" fill-rule="nonzero"/></g><g clip-path="url(#ecb317e75a)"><path stroke-linecap="butt" transform="matrix(0.750273, 0, 0, 0.768879, 6.288477, 4.558822)" fill="none" stroke-linejoin="miter" d="M 0.000780828 -0.000297053 L 85.964336 -0.000297053 L 85.964336 13.655955 L 0.000780828 13.655955 L 0.000780828 -0.000297053 " stroke="#000000" stroke-width="8" stroke-opacity="1" stroke-miterlimit="4"/></g><g clip-path="url(#b191d43f84)"><path fill="#000000" d="M 6.292969 18.382812 L 62.53125 18.382812 L 62.53125 28.882812 L 6.292969 28.882812 L 6.292969 18.382812 " fill-opacity="1" fill-rule="nonzero"/></g><g clip-path="url(#1d4a446e88)"><path stroke-linecap="butt" transform="matrix(0.746114, 0, 0, 0.768879, 6.291493, 18.383821)" fill="none" stroke-linejoin="miter" d="M 0.00197793 -0.00131209 L 75.37691 -0.00131209 L 75.37691 13.65494 L 0.00197793 13.65494 L 0.00197793 -0.00131209 " stroke="#000000" stroke-width="8" stroke-opacity="1" stroke-miterlimit="4"/></g><g clip-path="url(#775bc1124a)"><path fill="#000000" d="M 6.289062 32.378906 L 51.285156 32.378906 L 51.285156 42.878906 L 6.289062 42.878906 L 6.289062 32.378906 " fill-opacity="1" fill-rule="nonzero"/></g><g clip-path="url(#76b62ffd97)"><path stroke-linecap="butt" transform="matrix(0.74883, 0, 0, 0.768879, 6.2894, 32.377939)" fill="none" stroke-linejoin="miter" d="M -0.000450311 0.00125749 L 60.088092 0.00125749 L 60.088092 13.657509 L -0.000450311 13.657509 L -0.000450311 0.00125749 " stroke="#000000" stroke-width="8" stroke-opacity="1" stroke-miterlimit="4"/></g><g clip-path="url(#ec4cc4c155)"><path fill="#000000" d="M 6.292969 46.371094 L 62.53125 46.371094 L 62.53125 56.871094 L 6.292969 56.871094 L 6.292969 46.371094 " fill-opacity="1" fill-rule="nonzero"/></g><g clip-path="url(#a34c697264)"><path stroke-linecap="butt" transform="matrix(0.746114, 0, 0, 0.768879, 6.291493, 46.372051)" fill="none" stroke-linejoin="miter" d="M 0.00197793 -0.00124527 L 75.37691 -0.00124527 L 75.37691 13.655006 L 0.00197793 13.655006 L 0.00197793 -0.00124527 " stroke="#000000" stroke-width="8" stroke-opacity="1" stroke-miterlimit="4"/></g><g clip-path="url(#9d809c7059)"><path fill="#000000" d="M 6.289062 60.367188 L 70.785156 60.367188 L 70.785156 70.867188 L 6.289062 70.867188 L 6.289062 60.367188 " fill-opacity="1" fill-rule="nonzero"/></g><g clip-path="url(#1da0aed39b)"><path stroke-linecap="butt" transform="matrix(0.750273, 0, 0, 0.768879, 6.288477, 60.366172)" fill="none" stroke-linejoin="miter" d="M 0.000780828 0.00132118 L 85.964336 0.00132118 L 85.964336 13.657573 L 0.000780828 13.657573 L 0.000780828 0.00132118 " stroke="#000000" stroke-width="8" stroke-opacity="1" stroke-miterlimit="4"/></g></svg>