<svg xmlns="http://www.w3.org/2000/svg" xmlns:xlink="http://www.w3.org/1999/xlink" width="200" zoomAndPan="magnify" viewBox="0 0 150 74.999997" height="100" preserveAspectRatio="xMidYMid meet" version="1.0"><defs><g/><clipPath id="3139843a95"><path d="M 5.882812 11.535156 L 51.632812 11.535156 L 51.632812 64.035156 L 5.882812 64.035156 Z M 5.882812 11.535156 " clip-rule="nonzero"/></clipPath></defs><g clip-path="url(#3139843a95)"><path fill="#ff5757" d="M 9.59375 46.84375 C 13.679688 53.089844 20.742188 57.226562 28.757812 57.226562 C 41.371094 57.226562 51.632812 46.984375 51.632812 34.390625 C 51.632812 21.796875 41.371094 11.554688 28.757812 11.554688 C 16.144531 11.554688 5.882812 21.796875 5.882812 34.390625 L 5.882812 64.015625 L 9.59375 64.015625 Z M 34.324219 34.390625 C 34.324219 31.328125 36.820312 28.835938 39.886719 28.835938 C 42.953125 28.835938 45.449219 31.328125 45.449219 34.390625 C 45.449219 37.453125 42.953125 39.945312 39.886719 39.945312 C 36.820312 39.945312 34.324219 37.453125 34.324219 34.390625 Z M 34.324219 45.5 C 34.324219 48.5625 31.828125 51.054688 28.757812 51.054688 C 25.691406 51.054688 23.195312 48.5625 23.195312 45.5 C 23.195312 42.4375 25.691406 39.945312 28.757812 39.945312 C 31.828125 39.945312 34.324219 42.4375 34.324219 45.5 Z M 28.757812 28.835938 C 25.691406 28.835938 23.195312 26.34375 23.195312 23.28125 C 23.195312 20.21875 25.691406 17.726562 28.757812 17.726562 C 31.828125 17.726562 34.324219 20.21875 34.324219 23.28125 C 34.324219 26.34375 31.828125 28.835938 28.757812 28.835938 Z M 23.195312 34.390625 C 23.195312 37.453125 20.699219 39.945312 17.628906 39.945312 C 14.5625 39.945312 12.066406 37.453125 12.066406 34.390625 C 12.066406 31.328125 14.5625 28.835938 17.628906 28.835938 C 20.699219 28.835938 23.195312 31.328125 23.195312 34.390625 Z M 23.195312 34.390625 " fill-opacity="1" fill-rule="nonzero"/></g><g fill="#000000" fill-opacity="0.4"><g transform="translate(53.489197, 35.026423)"><g><path d="M 0.921875 -9.15625 L 2.875 -9.15625 L 2.875 -5.5 L 6.546875 -5.5 L 6.546875 -9.15625 L 8.5 -9.15625 L 8.5 0 L 6.546875 0 L 6.546875 -3.734375 L 2.875 -3.734375 L 2.875 0 L 0.921875 0 Z M 0.921875 -9.15625 "/></g></g></g><g fill="#000000" fill-opacity="0.4"><g transform="translate(62.578468, 35.026423)"><g><path d="M 3.328125 0.125 C 2.953125 0.125 2.609375 0.0625 2.296875 -0.0625 C 1.984375 -0.1875 1.710938 -0.367188 1.484375 -0.609375 C 1.265625 -0.859375 1.09375 -1.15625 0.96875 -1.5 C 0.84375 -1.84375 0.78125 -2.238281 0.78125 -2.6875 L 0.78125 -6.9375 L 2.609375 -6.9375 L 2.609375 -2.9375 C 2.609375 -2.476562 2.71875 -2.125 2.9375 -1.875 C 3.15625 -1.625 3.460938 -1.5 3.859375 -1.5 C 4.253906 -1.5 4.570312 -1.628906 4.8125 -1.890625 C 5.050781 -2.160156 5.171875 -2.507812 5.171875 -2.9375 L 5.171875 -6.9375 L 7 -6.9375 L 7 0 L 5.421875 0 L 5.234375 -0.78125 L 5.171875 -0.78125 C 4.941406 -0.488281 4.671875 -0.265625 4.359375 -0.109375 C 4.046875 0.046875 3.703125 0.125 3.328125 0.125 Z M 3.328125 0.125 "/></g></g></g><g fill="#000000" fill-opacity="0.4"><g transform="translate(70.032978, 35.026423)"><g><path d="M 0.78125 -6.9375 L 2.359375 -6.9375 L 2.546875 -6.140625 L 2.609375 -6.140625 C 2.816406 -6.441406 3.050781 -6.671875 3.3125 -6.828125 C 3.570312 -6.984375 3.882812 -7.0625 4.25 -7.0625 C 4.539062 -7.0625 4.789062 -7.019531 5 -6.9375 C 5.21875 -6.863281 5.40625 -6.769531 5.5625 -6.65625 C 5.71875 -6.539062 5.835938 -6.414062 5.921875 -6.28125 C 6.015625 -6.15625 6.085938 -6.046875 6.140625 -5.953125 L 6.21875 -5.953125 C 6.269531 -6.046875 6.347656 -6.15625 6.453125 -6.28125 C 6.554688 -6.414062 6.691406 -6.539062 6.859375 -6.65625 C 7.035156 -6.769531 7.238281 -6.863281 7.46875 -6.9375 C 7.707031 -7.019531 7.984375 -7.0625 8.296875 -7.0625 C 8.671875 -7.0625 9.015625 -7 9.328125 -6.875 C 9.648438 -6.75 9.921875 -6.566406 10.140625 -6.328125 C 10.359375 -6.097656 10.53125 -5.8125 10.65625 -5.46875 C 10.789062 -5.125 10.859375 -4.738281 10.859375 -4.3125 L 10.859375 0 L 9.03125 0 L 9.03125 -4.046875 C 9.03125 -4.296875 9 -4.503906 8.9375 -4.671875 C 8.875 -4.847656 8.789062 -4.988281 8.6875 -5.09375 C 8.582031 -5.207031 8.457031 -5.289062 8.3125 -5.34375 C 8.164062 -5.394531 8.007812 -5.421875 7.84375 -5.421875 C 7.550781 -5.421875 7.289062 -5.304688 7.0625 -5.078125 C 6.84375 -4.859375 6.734375 -4.515625 6.734375 -4.046875 L 6.734375 0 L 4.90625 0 L 4.90625 -4.046875 C 4.90625 -4.296875 4.875 -4.503906 4.8125 -4.671875 C 4.75 -4.847656 4.664062 -4.988281 4.5625 -5.09375 C 4.457031 -5.207031 4.332031 -5.289062 4.1875 -5.34375 C 4.039062 -5.394531 3.890625 -5.421875 3.734375 -5.421875 C 3.429688 -5.421875 3.164062 -5.296875 2.9375 -5.046875 C 2.71875 -4.804688 2.609375 -4.472656 2.609375 -4.046875 L 2.609375 0 L 0.78125 0 Z M 0.78125 -6.9375 "/></g></g></g><g fill="#000000" fill-opacity="0.4"><g transform="translate(81.280131, 35.026423)"><g><path d="M 4.640625 0.125 C 4.148438 0.125 3.75 0.03125 3.4375 -0.15625 C 3.125 -0.34375 2.875 -0.550781 2.6875 -0.78125 L 2.609375 -0.78125 L 2.421875 0 L 0.84375 0 L 0.84375 -9.15625 L 2.6875 -9.15625 L 2.6875 -6.21875 L 2.75 -6.21875 C 2.8125 -6.289062 2.894531 -6.375 3 -6.46875 C 3.113281 -6.570312 3.25 -6.664062 3.40625 -6.75 C 3.5625 -6.84375 3.738281 -6.914062 3.9375 -6.96875 C 4.144531 -7.03125 4.378906 -7.0625 4.640625 -7.0625 C 5.085938 -7.0625 5.492188 -6.984375 5.859375 -6.828125 C 6.222656 -6.679688 6.535156 -6.453125 6.796875 -6.140625 C 7.066406 -5.835938 7.273438 -5.460938 7.421875 -5.015625 C 7.578125 -4.566406 7.65625 -4.050781 7.65625 -3.46875 C 7.65625 -2.875 7.578125 -2.351562 7.421875 -1.90625 C 7.273438 -1.46875 7.066406 -1.09375 6.796875 -0.78125 C 6.535156 -0.476562 6.222656 -0.25 5.859375 -0.09375 C 5.492188 0.0507812 5.085938 0.125 4.640625 0.125 Z M 4.25 -1.5 C 4.457031 -1.5 4.65625 -1.535156 4.84375 -1.609375 C 5.039062 -1.679688 5.210938 -1.796875 5.359375 -1.953125 C 5.503906 -2.117188 5.613281 -2.328125 5.6875 -2.578125 C 5.769531 -2.828125 5.8125 -3.125 5.8125 -3.46875 C 5.8125 -3.800781 5.769531 -4.09375 5.6875 -4.34375 C 5.613281 -4.59375 5.503906 -4.796875 5.359375 -4.953125 C 5.210938 -5.117188 5.039062 -5.238281 4.84375 -5.3125 C 4.65625 -5.382812 4.457031 -5.421875 4.25 -5.421875 C 4.039062 -5.421875 3.835938 -5.382812 3.640625 -5.3125 C 3.453125 -5.238281 3.285156 -5.117188 3.140625 -4.953125 C 2.992188 -4.796875 2.878906 -4.59375 2.796875 -4.34375 C 2.722656 -4.09375 2.6875 -3.800781 2.6875 -3.46875 C 2.6875 -3.125 2.722656 -2.828125 2.796875 -2.578125 C 2.878906 -2.328125 2.992188 -2.117188 3.140625 -1.953125 C 3.285156 -1.796875 3.453125 -1.679688 3.640625 -1.609375 C 3.835938 -1.535156 4.039062 -1.5 4.25 -1.5 Z M 4.25 -1.5 "/></g></g></g><g fill="#000000" fill-opacity="0.4"><g transform="translate(89.061593, 35.026423)"><g><path d="M 0.84375 -9.15625 L 2.6875 -9.15625 L 2.6875 0 L 0.84375 0 Z M 0.84375 -9.15625 "/></g></g></g><g fill="#000000" fill-opacity="0.4"><g transform="translate(92.265724, 35.026423)"><g><path d="M 3.859375 0.125 C 3.335938 0.125 2.863281 0.046875 2.4375 -0.109375 C 2.019531 -0.273438 1.660156 -0.507812 1.359375 -0.8125 C 1.066406 -1.113281 0.84375 -1.488281 0.6875 -1.9375 C 0.53125 -2.382812 0.453125 -2.894531 0.453125 -3.46875 C 0.453125 -4.039062 0.53125 -4.546875 0.6875 -4.984375 C 0.84375 -5.429688 1.066406 -5.804688 1.359375 -6.109375 C 1.660156 -6.421875 2.019531 -6.65625 2.4375 -6.8125 C 2.863281 -6.976562 3.335938 -7.0625 3.859375 -7.0625 C 4.359375 -7.0625 4.8125 -6.972656 5.21875 -6.796875 C 5.632812 -6.628906 5.988281 -6.390625 6.28125 -6.078125 C 6.570312 -5.773438 6.796875 -5.410156 6.953125 -4.984375 C 7.109375 -4.566406 7.1875 -4.101562 7.1875 -3.59375 C 7.1875 -3.5 7.179688 -3.40625 7.171875 -3.3125 C 7.171875 -3.226562 7.164062 -3.15625 7.15625 -3.09375 C 7.144531 -3.007812 7.132812 -2.9375 7.125 -2.875 L 2.359375 -2.875 C 2.421875 -2.476562 2.570312 -2.148438 2.8125 -1.890625 C 3.050781 -1.628906 3.398438 -1.5 3.859375 -1.5 C 4.210938 -1.5 4.472656 -1.554688 4.640625 -1.671875 C 4.816406 -1.796875 4.96875 -1.957031 5.09375 -2.15625 L 7.0625 -2.15625 C 6.976562 -1.863281 6.851562 -1.578125 6.6875 -1.296875 C 6.53125 -1.023438 6.320312 -0.78125 6.0625 -0.5625 C 5.8125 -0.351562 5.503906 -0.1875 5.140625 -0.0625 C 4.773438 0.0625 4.347656 0.125 3.859375 0.125 Z M 5.296875 -4.25 C 5.265625 -4.394531 5.207031 -4.535156 5.125 -4.671875 C 5.050781 -4.816406 4.957031 -4.945312 4.84375 -5.0625 C 4.726562 -5.175781 4.585938 -5.265625 4.421875 -5.328125 C 4.253906 -5.390625 4.066406 -5.421875 3.859375 -5.421875 C 3.429688 -5.421875 3.097656 -5.304688 2.859375 -5.078125 C 2.617188 -4.859375 2.453125 -4.582031 2.359375 -4.25 Z M 5.296875 -4.25 "/></g></g></g><g fill="#000000" fill-opacity="0.4"><g transform="translate(99.589455, 35.026423)"><g/></g></g><g fill="#000000" fill-opacity="0.4"><g transform="translate(102.270465, 35.026423)"><g><path d="M 0.921875 -9.15625 L 3.796875 -9.15625 L 5.953125 -2.8125 L 6.015625 -2.8125 L 8.171875 -9.15625 L 11.046875 -9.15625 L 11.046875 0 L 9.09375 0 L 9.09375 -6.46875 L 9.03125 -6.46875 L 6.796875 0 L 5.171875 0 L 2.9375 -6.46875 L 2.875 -6.46875 L 2.875 0 L 0.921875 0 Z M 0.921875 -9.15625 "/></g></g></g><g fill="#000000" fill-opacity="0.4"><g transform="translate(113.909963, 35.026423)"><g><path d="M 3.859375 0.125 C 3.335938 0.125 2.863281 0.046875 2.4375 -0.109375 C 2.019531 -0.273438 1.660156 -0.507812 1.359375 -0.8125 C 1.066406 -1.113281 0.84375 -1.488281 0.6875 -1.9375 C 0.53125 -2.382812 0.453125 -2.894531 0.453125 -3.46875 C 0.453125 -4.039062 0.53125 -4.546875 0.6875 -4.984375 C 0.84375 -5.429688 1.066406 -5.804688 1.359375 -6.109375 C 1.660156 -6.421875 2.019531 -6.65625 2.4375 -6.8125 C 2.863281 -6.976562 3.335938 -7.0625 3.859375 -7.0625 C 4.378906 -7.0625 4.847656 -6.976562 5.265625 -6.8125 C 5.679688 -6.65625 6.035156 -6.421875 6.328125 -6.109375 C 6.628906 -5.804688 6.859375 -5.429688 7.015625 -4.984375 C 7.179688 -4.546875 7.265625 -4.039062 7.265625 -3.46875 C 7.265625 -2.894531 7.179688 -2.382812 7.015625 -1.9375 C 6.859375 -1.488281 6.628906 -1.113281 6.328125 -0.8125 C 6.035156 -0.507812 5.679688 -0.273438 5.265625 -0.109375 C 4.847656 0.046875 4.378906 0.125 3.859375 0.125 Z M 3.859375 -1.5 C 4.066406 -1.5 4.265625 -1.535156 4.453125 -1.609375 C 4.648438 -1.679688 4.816406 -1.796875 4.953125 -1.953125 C 5.097656 -2.117188 5.210938 -2.328125 5.296875 -2.578125 C 5.378906 -2.828125 5.421875 -3.125 5.421875 -3.46875 C 5.421875 -3.800781 5.378906 -4.09375 5.296875 -4.34375 C 5.210938 -4.59375 5.097656 -4.796875 4.953125 -4.953125 C 4.816406 -5.117188 4.648438 -5.238281 4.453125 -5.3125 C 4.265625 -5.382812 4.066406 -5.421875 3.859375 -5.421875 C 3.648438 -5.421875 3.445312 -5.382812 3.25 -5.3125 C 3.0625 -5.238281 2.894531 -5.117188 2.75 -4.953125 C 2.601562 -4.796875 2.488281 -4.59375 2.40625 -4.34375 C 2.320312 -4.09375 2.28125 -3.800781 2.28125 -3.46875 C 2.28125 -3.125 2.320312 -2.828125 2.40625 -2.578125 C 2.488281 -2.328125 2.601562 -2.117188 2.75 -1.953125 C 2.894531 -1.796875 3.0625 -1.679688 3.25 -1.609375 C 3.445312 -1.535156 3.648438 -1.5 3.859375 -1.5 Z M 3.859375 -1.5 "/></g></g></g><g fill="#000000" fill-opacity="0.4"><g transform="translate(121.299082, 35.026423)"><g><path d="M 0 -6.9375 L 1.96875 -6.9375 L 3.53125 -1.890625 L 3.59375 -1.890625 L 5.171875 -6.9375 L 7.125 -6.9375 L 4.703125 0 L 2.421875 0 Z M 0 -6.9375 "/></g></g></g><g fill="#000000" fill-opacity="0.4"><g transform="translate(128.099683, 35.026423)"><g><path d="M 0.78125 -6.9375 L 2.609375 -6.9375 L 2.609375 0 L 0.78125 0 Z M 1.703125 -7.65625 C 1.398438 -7.65625 1.148438 -7.753906 0.953125 -7.953125 C 0.753906 -8.148438 0.65625 -8.398438 0.65625 -8.703125 C 0.65625 -8.992188 0.753906 -9.238281 0.953125 -9.4375 C 1.148438 -9.644531 1.398438 -9.75 1.703125 -9.75 C 1.992188 -9.75 2.238281 -9.644531 2.4375 -9.4375 C 2.644531 -9.238281 2.75 -8.992188 2.75 -8.703125 C 2.75 -8.398438 2.644531 -8.148438 2.4375 -7.953125 C 2.238281 -7.753906 1.992188 -7.65625 1.703125 -7.65625 Z M 1.703125 -7.65625 "/></g></g></g><g fill="#000000" fill-opacity="0.4"><g transform="translate(131.173035, 35.026423)"><g><path d="M 3.859375 0.125 C 3.335938 0.125 2.863281 0.046875 2.4375 -0.109375 C 2.019531 -0.273438 1.660156 -0.507812 1.359375 -0.8125 C 1.066406 -1.113281 0.84375 -1.488281 0.6875 -1.9375 C 0.53125 -2.382812 0.453125 -2.894531 0.453125 -3.46875 C 0.453125 -4.039062 0.53125 -4.546875 0.6875 -4.984375 C 0.84375 -5.429688 1.066406 -5.804688 1.359375 -6.109375 C 1.660156 -6.421875 2.019531 -6.65625 2.4375 -6.8125 C 2.863281 -6.976562 3.335938 -7.0625 3.859375 -7.0625 C 4.359375 -7.0625 4.8125 -6.972656 5.21875 -6.796875 C 5.632812 -6.628906 5.988281 -6.390625 6.28125 -6.078125 C 6.570312 -5.773438 6.796875 -5.410156 6.953125 -4.984375 C 7.109375 -4.566406 7.1875 -4.101562 7.1875 -3.59375 C 7.1875 -3.5 7.179688 -3.40625 7.171875 -3.3125 C 7.171875 -3.226562 7.164062 -3.15625 7.15625 -3.09375 C 7.144531 -3.007812 7.132812 -2.9375 7.125 -2.875 L 2.359375 -2.875 C 2.421875 -2.476562 2.570312 -2.148438 2.8125 -1.890625 C 3.050781 -1.628906 3.398438 -1.5 3.859375 -1.5 C 4.210938 -1.5 4.472656 -1.554688 4.640625 -1.671875 C 4.816406 -1.796875 4.96875 -1.957031 5.09375 -2.15625 L 7.0625 -2.15625 C 6.976562 -1.863281 6.851562 -1.578125 6.6875 -1.296875 C 6.53125 -1.023438 6.320312 -0.78125 6.0625 -0.5625 C 5.8125 -0.351562 5.503906 -0.1875 5.140625 -0.0625 C 4.773438 0.0625 4.347656 0.125 3.859375 0.125 Z M 5.296875 -4.25 C 5.265625 -4.394531 5.207031 -4.535156 5.125 -4.671875 C 5.050781 -4.816406 4.957031 -4.945312 4.84375 -5.0625 C 4.726562 -5.175781 4.585938 -5.265625 4.421875 -5.328125 C 4.253906 -5.390625 4.066406 -5.421875 3.859375 -5.421875 C 3.429688 -5.421875 3.097656 -5.304688 2.859375 -5.078125 C 2.617188 -4.859375 2.453125 -4.582031 2.359375 -4.25 Z M 5.296875 -4.25 "/></g></g></g><g fill="#000000" fill-opacity="0.4"><g transform="translate(138.496766, 35.026423)"><g><path d="M 3.328125 0.125 C 2.828125 0.125 2.394531 0.0664062 2.03125 -0.046875 C 1.664062 -0.171875 1.359375 -0.335938 1.109375 -0.546875 C 0.867188 -0.753906 0.679688 -0.992188 0.546875 -1.265625 C 0.410156 -1.546875 0.316406 -1.84375 0.265625 -2.15625 L 2.21875 -2.15625 C 2.257812 -1.988281 2.375 -1.835938 2.5625 -1.703125 C 2.75 -1.566406 3.003906 -1.5 3.328125 -1.5 C 3.785156 -1.5 4.097656 -1.550781 4.265625 -1.65625 C 4.429688 -1.769531 4.515625 -1.894531 4.515625 -2.03125 C 4.515625 -2.195312 4.414062 -2.320312 4.21875 -2.40625 C 4.019531 -2.488281 3.769531 -2.554688 3.46875 -2.609375 C 3.175781 -2.671875 2.859375 -2.738281 2.515625 -2.8125 C 2.171875 -2.882812 1.847656 -3 1.546875 -3.15625 C 1.253906 -3.320312 1.007812 -3.546875 0.8125 -3.828125 C 0.613281 -4.109375 0.515625 -4.488281 0.515625 -4.96875 C 0.515625 -5.269531 0.578125 -5.546875 0.703125 -5.796875 C 0.828125 -6.046875 1.003906 -6.265625 1.234375 -6.453125 C 1.472656 -6.640625 1.765625 -6.785156 2.109375 -6.890625 C 2.460938 -7.003906 2.867188 -7.0625 3.328125 -7.0625 C 3.816406 -7.0625 4.238281 -7.003906 4.59375 -6.890625 C 4.957031 -6.773438 5.257812 -6.617188 5.5 -6.421875 C 5.738281 -6.234375 5.925781 -6.003906 6.0625 -5.734375 C 6.195312 -5.472656 6.289062 -5.195312 6.34375 -4.90625 L 4.375 -4.90625 C 4.34375 -5.03125 4.253906 -5.144531 4.109375 -5.25 C 3.960938 -5.363281 3.703125 -5.421875 3.328125 -5.421875 C 3.035156 -5.421875 2.8125 -5.378906 2.65625 -5.296875 C 2.5 -5.210938 2.421875 -5.101562 2.421875 -4.96875 C 2.421875 -4.789062 2.519531 -4.660156 2.71875 -4.578125 C 2.914062 -4.503906 3.160156 -4.4375 3.453125 -4.375 C 3.742188 -4.320312 4.0625 -4.257812 4.40625 -4.1875 C 4.757812 -4.113281 5.082031 -3.992188 5.375 -3.828125 C 5.664062 -3.671875 5.910156 -3.453125 6.109375 -3.171875 C 6.304688 -2.890625 6.40625 -2.507812 6.40625 -2.03125 C 6.40625 -1.75 6.351562 -1.476562 6.25 -1.21875 C 6.15625 -0.96875 5.988281 -0.738281 5.75 -0.53125 C 5.519531 -0.332031 5.207031 -0.171875 4.8125 -0.046875 C 4.414062 0.0664062 3.921875 0.125 3.328125 0.125 Z M 3.328125 0.125 "/></g></g></g><g fill="#000000" fill-opacity="1"><g transform="translate(52.911224, 34.448449)"><g><path d="M 0.921875 -9.15625 L 2.875 -9.15625 L 2.875 -5.5 L 6.546875 -5.5 L 6.546875 -9.15625 L 8.5 -9.15625 L 8.5 0 L 6.546875 0 L 6.546875 -3.734375 L 2.875 -3.734375 L 2.875 0 L 0.921875 0 Z M 0.921875 -9.15625 "/></g></g></g><g fill="#000000" fill-opacity="1"><g transform="translate(62.000495, 34.448449)"><g><path d="M 3.328125 0.125 C 2.953125 0.125 2.609375 0.0625 2.296875 -0.0625 C 1.984375 -0.1875 1.710938 -0.367188 1.484375 -0.609375 C 1.265625 -0.859375 1.09375 -1.15625 0.96875 -1.5 C 0.84375 -1.84375 0.78125 -2.238281 0.78125 -2.6875 L 0.78125 -6.9375 L 2.609375 -6.9375 L 2.609375 -2.9375 C 2.609375 -2.476562 2.71875 -2.125 2.9375 -1.875 C 3.15625 -1.625 3.460938 -1.5 3.859375 -1.5 C 4.253906 -1.5 4.570312 -1.628906 4.8125 -1.890625 C 5.050781 -2.160156 5.171875 -2.507812 5.171875 -2.9375 L 5.171875 -6.9375 L 7 -6.9375 L 7 0 L 5.421875 0 L 5.234375 -0.78125 L 5.171875 -0.78125 C 4.941406 -0.488281 4.671875 -0.265625 4.359375 -0.109375 C 4.046875 0.046875 3.703125 0.125 3.328125 0.125 Z M 3.328125 0.125 "/></g></g></g><g fill="#000000" fill-opacity="1"><g transform="translate(69.455005, 34.448449)"><g><path d="M 0.78125 -6.9375 L 2.359375 -6.9375 L 2.546875 -6.140625 L 2.609375 -6.140625 C 2.816406 -6.441406 3.050781 -6.671875 3.3125 -6.828125 C 3.570312 -6.984375 3.882812 -7.0625 4.25 -7.0625 C 4.539062 -7.0625 4.789062 -7.019531 5 -6.9375 C 5.21875 -6.863281 5.40625 -6.769531 5.5625 -6.65625 C 5.71875 -6.539062 5.835938 -6.414062 5.921875 -6.28125 C 6.015625 -6.15625 6.085938 -6.046875 6.140625 -5.953125 L 6.21875 -5.953125 C 6.269531 -6.046875 6.347656 -6.15625 6.453125 -6.28125 C 6.554688 -6.414062 6.691406 -6.539062 6.859375 -6.65625 C 7.035156 -6.769531 7.238281 -6.863281 7.46875 -6.9375 C 7.707031 -7.019531 7.984375 -7.0625 8.296875 -7.0625 C 8.671875 -7.0625 9.015625 -7 9.328125 -6.875 C 9.648438 -6.75 9.921875 -6.566406 10.140625 -6.328125 C 10.359375 -6.097656 10.53125 -5.8125 10.65625 -5.46875 C 10.789062 -5.125 10.859375 -4.738281 10.859375 -4.3125 L 10.859375 0 L 9.03125 0 L 9.03125 -4.046875 C 9.03125 -4.296875 9 -4.503906 8.9375 -4.671875 C 8.875 -4.847656 8.789062 -4.988281 8.6875 -5.09375 C 8.582031 -5.207031 8.457031 -5.289062 8.3125 -5.34375 C 8.164062 -5.394531 8.007812 -5.421875 7.84375 -5.421875 C 7.550781 -5.421875 7.289062 -5.304688 7.0625 -5.078125 C 6.84375 -4.859375 6.734375 -4.515625 6.734375 -4.046875 L 6.734375 0 L 4.90625 0 L 4.90625 -4.046875 C 4.90625 -4.296875 4.875 -4.503906 4.8125 -4.671875 C 4.75 -4.847656 4.664062 -4.988281 4.5625 -5.09375 C 4.457031 -5.207031 4.332031 -5.289062 4.1875 -5.34375 C 4.039062 -5.394531 3.890625 -5.421875 3.734375 -5.421875 C 3.429688 -5.421875 3.164062 -5.296875 2.9375 -5.046875 C 2.71875 -4.804688 2.609375 -4.472656 2.609375 -4.046875 L 2.609375 0 L 0.78125 0 Z M 0.78125 -6.9375 "/></g></g></g><g fill="#000000" fill-opacity="1"><g transform="translate(80.702159, 34.448449)"><g><path d="M 4.640625 0.125 C 4.148438 0.125 3.75 0.03125 3.4375 -0.15625 C 3.125 -0.34375 2.875 -0.550781 2.6875 -0.78125 L 2.609375 -0.78125 L 2.421875 0 L 0.84375 0 L 0.84375 -9.15625 L 2.6875 -9.15625 L 2.6875 -6.21875 L 2.75 -6.21875 C 2.8125 -6.289062 2.894531 -6.375 3 -6.46875 C 3.113281 -6.570312 3.25 -6.664062 3.40625 -6.75 C 3.5625 -6.84375 3.738281 -6.914062 3.9375 -6.96875 C 4.144531 -7.03125 4.378906 -7.0625 4.640625 -7.0625 C 5.085938 -7.0625 5.492188 -6.984375 5.859375 -6.828125 C 6.222656 -6.679688 6.535156 -6.453125 6.796875 -6.140625 C 7.066406 -5.835938 7.273438 -5.460938 7.421875 -5.015625 C 7.578125 -4.566406 7.65625 -4.050781 7.65625 -3.46875 C 7.65625 -2.875 7.578125 -2.351562 7.421875 -1.90625 C 7.273438 -1.46875 7.066406 -1.09375 6.796875 -0.78125 C 6.535156 -0.476562 6.222656 -0.25 5.859375 -0.09375 C 5.492188 0.0507812 5.085938 0.125 4.640625 0.125 Z M 4.25 -1.5 C 4.457031 -1.5 4.65625 -1.535156 4.84375 -1.609375 C 5.039062 -1.679688 5.210938 -1.796875 5.359375 -1.953125 C 5.503906 -2.117188 5.613281 -2.328125 5.6875 -2.578125 C 5.769531 -2.828125 5.8125 -3.125 5.8125 -3.46875 C 5.8125 -3.800781 5.769531 -4.09375 5.6875 -4.34375 C 5.613281 -4.59375 5.503906 -4.796875 5.359375 -4.953125 C 5.210938 -5.117188 5.039062 -5.238281 4.84375 -5.3125 C 4.65625 -5.382812 4.457031 -5.421875 4.25 -5.421875 C 4.039062 -5.421875 3.835938 -5.382812 3.640625 -5.3125 C 3.453125 -5.238281 3.285156 -5.117188 3.140625 -4.953125 C 2.992188 -4.796875 2.878906 -4.59375 2.796875 -4.34375 C 2.722656 -4.09375 2.6875 -3.800781 2.6875 -3.46875 C 2.6875 -3.125 2.722656 -2.828125 2.796875 -2.578125 C 2.878906 -2.328125 2.992188 -2.117188 3.140625 -1.953125 C 3.285156 -1.796875 3.453125 -1.679688 3.640625 -1.609375 C 3.835938 -1.535156 4.039062 -1.5 4.25 -1.5 Z M 4.25 -1.5 "/></g></g></g><g fill="#000000" fill-opacity="1"><g transform="translate(88.48362, 34.448449)"><g><path d="M 0.84375 -9.15625 L 2.6875 -9.15625 L 2.6875 0 L 0.84375 0 Z M 0.84375 -9.15625 "/></g></g></g><g fill="#000000" fill-opacity="1"><g transform="translate(91.687751, 34.448449)"><g><path d="M 3.859375 0.125 C 3.335938 0.125 2.863281 0.046875 2.4375 -0.109375 C 2.019531 -0.273438 1.660156 -0.507812 1.359375 -0.8125 C 1.066406 -1.113281 0.84375 -1.488281 0.6875 -1.9375 C 0.53125 -2.382812 0.453125 -2.894531 0.453125 -3.46875 C 0.453125 -4.039062 0.53125 -4.546875 0.6875 -4.984375 C 0.84375 -5.429688 1.066406 -5.804688 1.359375 -6.109375 C 1.660156 -6.421875 2.019531 -6.65625 2.4375 -6.8125 C 2.863281 -6.976562 3.335938 -7.0625 3.859375 -7.0625 C 4.359375 -7.0625 4.8125 -6.972656 5.21875 -6.796875 C 5.632812 -6.628906 5.988281 -6.390625 6.28125 -6.078125 C 6.570312 -5.773438 6.796875 -5.410156 6.953125 -4.984375 C 7.109375 -4.566406 7.1875 -4.101562 7.1875 -3.59375 C 7.1875 -3.5 7.179688 -3.40625 7.171875 -3.3125 C 7.171875 -3.226562 7.164062 -3.15625 7.15625 -3.09375 C 7.144531 -3.007812 7.132812 -2.9375 7.125 -2.875 L 2.359375 -2.875 C 2.421875 -2.476562 2.570312 -2.148438 2.8125 -1.890625 C 3.050781 -1.628906 3.398438 -1.5 3.859375 -1.5 C 4.210938 -1.5 4.472656 -1.554688 4.640625 -1.671875 C 4.816406 -1.796875 4.96875 -1.957031 5.09375 -2.15625 L 7.0625 -2.15625 C 6.976562 -1.863281 6.851562 -1.578125 6.6875 -1.296875 C 6.53125 -1.023438 6.320312 -0.78125 6.0625 -0.5625 C 5.8125 -0.351562 5.503906 -0.1875 5.140625 -0.0625 C 4.773438 0.0625 4.347656 0.125 3.859375 0.125 Z M 5.296875 -4.25 C 5.265625 -4.394531 5.207031 -4.535156 5.125 -4.671875 C 5.050781 -4.816406 4.957031 -4.945312 4.84375 -5.0625 C 4.726562 -5.175781 4.585938 -5.265625 4.421875 -5.328125 C 4.253906 -5.390625 4.066406 -5.421875 3.859375 -5.421875 C 3.429688 -5.421875 3.097656 -5.304688 2.859375 -5.078125 C 2.617188 -4.859375 2.453125 -4.582031 2.359375 -4.25 Z M 5.296875 -4.25 "/></g></g></g><g fill="#000000" fill-opacity="1"><g transform="translate(99.011483, 34.448449)"><g/></g></g><g fill="#000000" fill-opacity="1"><g transform="translate(101.692492, 34.448449)"><g><path d="M 0.921875 -9.15625 L 3.796875 -9.15625 L 5.953125 -2.8125 L 6.015625 -2.8125 L 8.171875 -9.15625 L 11.046875 -9.15625 L 11.046875 0 L 9.09375 0 L 9.09375 -6.46875 L 9.03125 -6.46875 L 6.796875 0 L 5.171875 0 L 2.9375 -6.46875 L 2.875 -6.46875 L 2.875 0 L 0.921875 0 Z M 0.921875 -9.15625 "/></g></g></g><g fill="#000000" fill-opacity="1"><g transform="translate(113.33199, 34.448449)"><g><path d="M 3.859375 0.125 C 3.335938 0.125 2.863281 0.046875 2.4375 -0.109375 C 2.019531 -0.273438 1.660156 -0.507812 1.359375 -0.8125 C 1.066406 -1.113281 0.84375 -1.488281 0.6875 -1.9375 C 0.53125 -2.382812 0.453125 -2.894531 0.453125 -3.46875 C 0.453125 -4.039062 0.53125 -4.546875 0.6875 -4.984375 C 0.84375 -5.429688 1.066406 -5.804688 1.359375 -6.109375 C 1.660156 -6.421875 2.019531 -6.65625 2.4375 -6.8125 C 2.863281 -6.976562 3.335938 -7.0625 3.859375 -7.0625 C 4.378906 -7.0625 4.847656 -6.976562 5.265625 -6.8125 C 5.679688 -6.65625 6.035156 -6.421875 6.328125 -6.109375 C 6.628906 -5.804688 6.859375 -5.429688 7.015625 -4.984375 C 7.179688 -4.546875 7.265625 -4.039062 7.265625 -3.46875 C 7.265625 -2.894531 7.179688 -2.382812 7.015625 -1.9375 C 6.859375 -1.488281 6.628906 -1.113281 6.328125 -0.8125 C 6.035156 -0.507812 5.679688 -0.273438 5.265625 -0.109375 C 4.847656 0.046875 4.378906 0.125 3.859375 0.125 Z M 3.859375 -1.5 C 4.066406 -1.5 4.265625 -1.535156 4.453125 -1.609375 C 4.648438 -1.679688 4.816406 -1.796875 4.953125 -1.953125 C 5.097656 -2.117188 5.210938 -2.328125 5.296875 -2.578125 C 5.378906 -2.828125 5.421875 -3.125 5.421875 -3.46875 C 5.421875 -3.800781 5.378906 -4.09375 5.296875 -4.34375 C 5.210938 -4.59375 5.097656 -4.796875 4.953125 -4.953125 C 4.816406 -5.117188 4.648438 -5.238281 4.453125 -5.3125 C 4.265625 -5.382812 4.066406 -5.421875 3.859375 -5.421875 C 3.648438 -5.421875 3.445312 -5.382812 3.25 -5.3125 C 3.0625 -5.238281 2.894531 -5.117188 2.75 -4.953125 C 2.601562 -4.796875 2.488281 -4.59375 2.40625 -4.34375 C 2.320312 -4.09375 2.28125 -3.800781 2.28125 -3.46875 C 2.28125 -3.125 2.320312 -2.828125 2.40625 -2.578125 C 2.488281 -2.328125 2.601562 -2.117188 2.75 -1.953125 C 2.894531 -1.796875 3.0625 -1.679688 3.25 -1.609375 C 3.445312 -1.535156 3.648438 -1.5 3.859375 -1.5 Z M 3.859375 -1.5 "/></g></g></g><g fill="#000000" fill-opacity="1"><g transform="translate(120.721109, 34.448449)"><g><path d="M 0 -6.9375 L 1.96875 -6.9375 L 3.53125 -1.890625 L 3.59375 -1.890625 L 5.171875 -6.9375 L 7.125 -6.9375 L 4.703125 0 L 2.421875 0 Z M 0 -6.9375 "/></g></g></g><g fill="#000000" fill-opacity="1"><g transform="translate(127.52171, 34.448449)"><g><path d="M 0.78125 -6.9375 L 2.609375 -6.9375 L 2.609375 0 L 0.78125 0 Z M 1.703125 -7.65625 C 1.398438 -7.65625 1.148438 -7.753906 0.953125 -7.953125 C 0.753906 -8.148438 0.65625 -8.398438 0.65625 -8.703125 C 0.65625 -8.992188 0.753906 -9.238281 0.953125 -9.4375 C 1.148438 -9.644531 1.398438 -9.75 1.703125 -9.75 C 1.992188 -9.75 2.238281 -9.644531 2.4375 -9.4375 C 2.644531 -9.238281 2.75 -8.992188 2.75 -8.703125 C 2.75 -8.398438 2.644531 -8.148438 2.4375 -7.953125 C 2.238281 -7.753906 1.992188 -7.65625 1.703125 -7.65625 Z M 1.703125 -7.65625 "/></g></g></g><g fill="#000000" fill-opacity="1"><g transform="translate(130.595062, 34.448449)"><g><path d="M 3.859375 0.125 C 3.335938 0.125 2.863281 0.046875 2.4375 -0.109375 C 2.019531 -0.273438 1.660156 -0.507812 1.359375 -0.8125 C 1.066406 -1.113281 0.84375 -1.488281 0.6875 -1.9375 C 0.53125 -2.382812 0.453125 -2.894531 0.453125 -3.46875 C 0.453125 -4.039062 0.53125 -4.546875 0.6875 -4.984375 C 0.84375 -5.429688 1.066406 -5.804688 1.359375 -6.109375 C 1.660156 -6.421875 2.019531 -6.65625 2.4375 -6.8125 C 2.863281 -6.976562 3.335938 -7.0625 3.859375 -7.0625 C 4.359375 -7.0625 4.8125 -6.972656 5.21875 -6.796875 C 5.632812 -6.628906 5.988281 -6.390625 6.28125 -6.078125 C 6.570312 -5.773438 6.796875 -5.410156 6.953125 -4.984375 C 7.109375 -4.566406 7.1875 -4.101562 7.1875 -3.59375 C 7.1875 -3.5 7.179688 -3.40625 7.171875 -3.3125 C 7.171875 -3.226562 7.164062 -3.15625 7.15625 -3.09375 C 7.144531 -3.007812 7.132812 -2.9375 7.125 -2.875 L 2.359375 -2.875 C 2.421875 -2.476562 2.570312 -2.148438 2.8125 -1.890625 C 3.050781 -1.628906 3.398438 -1.5 3.859375 -1.5 C 4.210938 -1.5 4.472656 -1.554688 4.640625 -1.671875 C 4.816406 -1.796875 4.96875 -1.957031 5.09375 -2.15625 L 7.0625 -2.15625 C 6.976562 -1.863281 6.851562 -1.578125 6.6875 -1.296875 C 6.53125 -1.023438 6.320312 -0.78125 6.0625 -0.5625 C 5.8125 -0.351562 5.503906 -0.1875 5.140625 -0.0625 C 4.773438 0.0625 4.347656 0.125 3.859375 0.125 Z M 5.296875 -4.25 C 5.265625 -4.394531 5.207031 -4.535156 5.125 -4.671875 C 5.050781 -4.816406 4.957031 -4.945312 4.84375 -5.0625 C 4.726562 -5.175781 4.585938 -5.265625 4.421875 -5.328125 C 4.253906 -5.390625 4.066406 -5.421875 3.859375 -5.421875 C 3.429688 -5.421875 3.097656 -5.304688 2.859375 -5.078125 C 2.617188 -4.859375 2.453125 -4.582031 2.359375 -4.25 Z M 5.296875 -4.25 "/></g></g></g><g fill="#000000" fill-opacity="1"><g transform="translate(137.918793, 34.448449)"><g><path d="M 3.328125 0.125 C 2.828125 0.125 2.394531 0.0664062 2.03125 -0.046875 C 1.664062 -0.171875 1.359375 -0.335938 1.109375 -0.546875 C 0.867188 -0.753906 0.679688 -0.992188 0.546875 -1.265625 C 0.410156 -1.546875 0.316406 -1.84375 0.265625 -2.15625 L 2.21875 -2.15625 C 2.257812 -1.988281 2.375 -1.835938 2.5625 -1.703125 C 2.75 -1.566406 3.003906 -1.5 3.328125 -1.5 C 3.785156 -1.5 4.097656 -1.550781 4.265625 -1.65625 C 4.429688 -1.769531 4.515625 -1.894531 4.515625 -2.03125 C 4.515625 -2.195312 4.414062 -2.320312 4.21875 -2.40625 C 4.019531 -2.488281 3.769531 -2.554688 3.46875 -2.609375 C 3.175781 -2.671875 2.859375 -2.738281 2.515625 -2.8125 C 2.171875 -2.882812 1.847656 -3 1.546875 -3.15625 C 1.253906 -3.320312 1.007812 -3.546875 0.8125 -3.828125 C 0.613281 -4.109375 0.515625 -4.488281 0.515625 -4.96875 C 0.515625 -5.269531 0.578125 -5.546875 0.703125 -5.796875 C 0.828125 -6.046875 1.003906 -6.265625 1.234375 -6.453125 C 1.472656 -6.640625 1.765625 -6.785156 2.109375 -6.890625 C 2.460938 -7.003906 2.867188 -7.0625 3.328125 -7.0625 C 3.816406 -7.0625 4.238281 -7.003906 4.59375 -6.890625 C 4.957031 -6.773438 5.257812 -6.617188 5.5 -6.421875 C 5.738281 -6.234375 5.925781 -6.003906 6.0625 -5.734375 C 6.195312 -5.472656 6.289062 -5.195312 6.34375 -4.90625 L 4.375 -4.90625 C 4.34375 -5.03125 4.253906 -5.144531 4.109375 -5.25 C 3.960938 -5.363281 3.703125 -5.421875 3.328125 -5.421875 C 3.035156 -5.421875 2.8125 -5.378906 2.65625 -5.296875 C 2.5 -5.210938 2.421875 -5.101562 2.421875 -4.96875 C 2.421875 -4.789062 2.519531 -4.660156 2.71875 -4.578125 C 2.914062 -4.503906 3.160156 -4.4375 3.453125 -4.375 C 3.742188 -4.320312 4.0625 -4.257812 4.40625 -4.1875 C 4.757812 -4.113281 5.082031 -3.992188 5.375 -3.828125 C 5.664062 -3.671875 5.910156 -3.453125 6.109375 -3.171875 C 6.304688 -2.890625 6.40625 -2.507812 6.40625 -2.03125 C 6.40625 -1.75 6.351562 -1.476562 6.25 -1.21875 C 6.15625 -0.96875 5.988281 -0.738281 5.75 -0.53125 C 5.519531 -0.332031 5.207031 -0.171875 4.8125 -0.046875 C 4.414062 0.0664062 3.921875 0.125 3.328125 0.125 Z M 3.328125 0.125 "/></g></g></g><g fill="#000000" fill-opacity="0.4"><g transform="translate(53.384816, 48.371579)"><g><path d="M 0.90625 -7.5 L 3.75 -7.5 C 4.125 -7.5 4.457031 -7.4375 4.75 -7.3125 C 5.050781 -7.195312 5.304688 -7.03125 5.515625 -6.8125 C 5.722656 -6.601562 5.878906 -6.359375 5.984375 -6.078125 C 6.097656 -5.796875 6.15625 -5.484375 6.15625 -5.140625 C 6.15625 -4.804688 6.097656 -4.492188 5.984375 -4.203125 C 5.878906 -3.921875 5.722656 -3.675781 5.515625 -3.46875 C 5.304688 -3.257812 5.050781 -3.09375 4.75 -2.96875 C 4.457031 -2.84375 4.125 -2.78125 3.75 -2.78125 L 1.828125 -2.78125 L 1.828125 0 L 0.90625 0 Z M 3.703125 -3.59375 C 4.179688 -3.59375 4.554688 -3.734375 4.828125 -4.015625 C 5.109375 -4.304688 5.25 -4.679688 5.25 -5.140625 C 5.25 -5.597656 5.109375 -5.972656 4.828125 -6.265625 C 4.554688 -6.554688 4.179688 -6.703125 3.703125 -6.703125 L 1.828125 -6.703125 L 1.828125 -3.59375 Z M 3.703125 -3.59375 "/></g></g></g><g fill="#000000" fill-opacity="0.4"><g transform="translate(59.812844, 48.371579)"><g><path d="M 0.796875 -7.5 L 1.609375 -7.5 L 1.609375 0 L 0.796875 0 Z M 0.796875 -7.5 "/></g></g></g><g fill="#000000" fill-opacity="0.4"><g transform="translate(61.955476, 48.371579)"><g><path d="M 2.359375 0.109375 C 2.066406 0.109375 1.800781 0.0664062 1.5625 -0.015625 C 1.320312 -0.109375 1.117188 -0.234375 0.953125 -0.390625 C 0.785156 -0.546875 0.65625 -0.726562 0.5625 -0.9375 C 0.46875 -1.144531 0.421875 -1.367188 0.421875 -1.609375 C 0.421875 -1.847656 0.46875 -2.070312 0.5625 -2.28125 C 0.65625 -2.488281 0.789062 -2.671875 0.96875 -2.828125 C 1.144531 -2.984375 1.363281 -3.101562 1.625 -3.1875 C 1.882812 -3.28125 2.179688 -3.328125 2.515625 -3.328125 L 4.078125 -3.328125 L 4.078125 -3.703125 C 4.078125 -4.078125 3.953125 -4.375 3.703125 -4.59375 C 3.460938 -4.820312 3.140625 -4.9375 2.734375 -4.9375 C 2.378906 -4.9375 2.09375 -4.859375 1.875 -4.703125 C 1.664062 -4.554688 1.523438 -4.363281 1.453125 -4.125 L 0.59375 -4.125 C 0.726562 -4.644531 0.984375 -5.035156 1.359375 -5.296875 C 1.734375 -5.554688 2.191406 -5.6875 2.734375 -5.6875 C 3.066406 -5.6875 3.363281 -5.632812 3.625 -5.53125 C 3.894531 -5.4375 4.125 -5.300781 4.3125 -5.125 C 4.5 -4.957031 4.640625 -4.75 4.734375 -4.5 C 4.828125 -4.257812 4.875 -3.992188 4.875 -3.703125 L 4.875 0 L 4.234375 0 L 4.125 -0.75 L 4.078125 -0.75 C 4.015625 -0.65625 3.929688 -0.554688 3.828125 -0.453125 C 3.722656 -0.359375 3.597656 -0.265625 3.453125 -0.171875 C 3.304688 -0.0859375 3.140625 -0.0195312 2.953125 0.03125 C 2.773438 0.0820312 2.578125 0.109375 2.359375 0.109375 Z M 2.359375 -0.640625 C 2.617188 -0.640625 2.851562 -0.679688 3.0625 -0.765625 C 3.28125 -0.847656 3.460938 -0.957031 3.609375 -1.09375 C 3.765625 -1.238281 3.878906 -1.40625 3.953125 -1.59375 C 4.035156 -1.78125 4.078125 -1.984375 4.078125 -2.203125 L 4.078125 -2.578125 L 2.515625 -2.578125 C 2.085938 -2.578125 1.765625 -2.488281 1.546875 -2.3125 C 1.335938 -2.144531 1.234375 -1.910156 1.234375 -1.609375 C 1.234375 -1.304688 1.332031 -1.066406 1.53125 -0.890625 C 1.726562 -0.722656 2.003906 -0.640625 2.359375 -0.640625 Z M 2.359375 -0.640625 "/></g></g></g><g fill="#000000" fill-opacity="0.4"><g transform="translate(67.258588, 48.371579)"><g><path d="M 2.515625 0 C 2.109375 0 1.773438 -0.128906 1.515625 -0.390625 C 1.253906 -0.648438 1.125 -0.984375 1.125 -1.390625 L 1.125 -4.828125 L 0.265625 -4.828125 L 0.265625 -5.578125 L 1.125 -5.578125 L 1.234375 -7.078125 L 1.921875 -7.078125 L 1.921875 -5.578125 L 3.375 -5.578125 L 3.375 -4.828125 L 1.921875 -4.828125 L 1.921875 -1.390625 C 1.921875 -1.203125 1.984375 -1.046875 2.109375 -0.921875 C 2.234375 -0.804688 2.390625 -0.75 2.578125 -0.75 L 3.375 -0.75 L 3.375 0 Z M 2.515625 0 "/></g></g></g><g fill="#000000" fill-opacity="0.4"><g transform="translate(70.793974, 48.371579)"><g><path d="M 1.125 -4.828125 L 0.265625 -4.828125 L 0.265625 -5.578125 L 1.125 -5.578125 L 1.125 -6.109375 C 1.125 -6.515625 1.253906 -6.847656 1.515625 -7.109375 C 1.773438 -7.367188 2.109375 -7.5 2.515625 -7.5 L 3.375 -7.5 L 3.375 -6.75 L 2.578125 -6.75 C 2.390625 -6.75 2.234375 -6.6875 2.109375 -6.5625 C 1.984375 -6.445312 1.921875 -6.296875 1.921875 -6.109375 L 1.921875 -5.578125 L 3.375 -5.578125 L 3.375 -4.828125 L 1.921875 -4.828125 L 1.921875 0 L 1.125 0 Z M 1.125 -4.828125 "/></g></g></g><g fill="#000000" fill-opacity="0.4"><g transform="translate(74.115092, 48.371579)"><g><path d="M 3.0625 0.109375 C 2.675781 0.109375 2.328125 0.046875 2.015625 -0.078125 C 1.703125 -0.203125 1.429688 -0.382812 1.203125 -0.625 C 0.984375 -0.875 0.804688 -1.175781 0.671875 -1.53125 C 0.546875 -1.894531 0.484375 -2.3125 0.484375 -2.78125 C 0.484375 -3.257812 0.546875 -3.675781 0.671875 -4.03125 C 0.804688 -4.382812 0.984375 -4.6875 1.203125 -4.9375 C 1.429688 -5.1875 1.703125 -5.375 2.015625 -5.5 C 2.328125 -5.625 2.675781 -5.6875 3.0625 -5.6875 C 3.425781 -5.6875 3.765625 -5.625 4.078125 -5.5 C 4.398438 -5.375 4.671875 -5.1875 4.890625 -4.9375 C 5.117188 -4.6875 5.296875 -4.382812 5.421875 -4.03125 C 5.554688 -3.675781 5.625 -3.257812 5.625 -2.78125 C 5.625 -2.3125 5.554688 -1.894531 5.421875 -1.53125 C 5.296875 -1.175781 5.117188 -0.875 4.890625 -0.625 C 4.671875 -0.382812 4.398438 -0.203125 4.078125 -0.078125 C 3.765625 0.046875 3.425781 0.109375 3.0625 0.109375 Z M 3.0625 -0.640625 C 3.3125 -0.640625 3.539062 -0.6875 3.75 -0.78125 C 3.96875 -0.875 4.15625 -1.007812 4.3125 -1.1875 C 4.476562 -1.375 4.601562 -1.597656 4.6875 -1.859375 C 4.78125 -2.128906 4.828125 -2.4375 4.828125 -2.78125 C 4.828125 -3.132812 4.78125 -3.441406 4.6875 -3.703125 C 4.601562 -3.972656 4.476562 -4.195312 4.3125 -4.375 C 4.15625 -4.5625 3.96875 -4.703125 3.75 -4.796875 C 3.539062 -4.890625 3.3125 -4.9375 3.0625 -4.9375 C 2.800781 -4.9375 2.5625 -4.890625 2.34375 -4.796875 C 2.132812 -4.703125 1.945312 -4.5625 1.78125 -4.375 C 1.625 -4.195312 1.5 -3.972656 1.40625 -3.703125 C 1.320312 -3.441406 1.28125 -3.132812 1.28125 -2.78125 C 1.28125 -2.4375 1.320312 -2.128906 1.40625 -1.859375 C 1.5 -1.597656 1.625 -1.375 1.78125 -1.1875 C 1.945312 -1.007812 2.132812 -0.875 2.34375 -0.78125 C 2.5625 -0.6875 2.800781 -0.640625 3.0625 -0.640625 Z M 3.0625 -0.640625 "/></g></g></g><g fill="#000000" fill-opacity="0.4"><g transform="translate(79.95388, 48.371579)"><g><path d="M 0.75 -5.578125 L 1.390625 -5.578125 L 1.5 -4.828125 L 1.546875 -4.828125 C 1.710938 -5.097656 1.914062 -5.289062 2.15625 -5.40625 C 2.40625 -5.519531 2.707031 -5.578125 3.0625 -5.578125 L 3.640625 -5.578125 L 3.640625 -4.828125 L 3.0625 -4.828125 C 2.84375 -4.828125 2.640625 -4.789062 2.453125 -4.71875 C 2.273438 -4.644531 2.117188 -4.546875 1.984375 -4.421875 C 1.847656 -4.304688 1.738281 -4.160156 1.65625 -3.984375 C 1.582031 -3.816406 1.546875 -3.632812 1.546875 -3.4375 L 1.546875 0 L 0.75 0 Z M 0.75 -5.578125 "/></g></g></g><g fill="#000000" fill-opacity="0.4"><g transform="translate(83.489266, 48.371579)"><g><path d="M 0.75 -5.578125 L 1.390625 -5.578125 L 1.5 -4.828125 L 1.546875 -4.828125 C 1.734375 -5.148438 1.957031 -5.375 2.21875 -5.5 C 2.476562 -5.625 2.757812 -5.6875 3.0625 -5.6875 C 3.40625 -5.6875 3.71875 -5.59375 4 -5.40625 C 4.28125 -5.226562 4.5 -4.976562 4.65625 -4.65625 L 4.71875 -4.65625 C 4.90625 -5.007812 5.148438 -5.269531 5.453125 -5.4375 C 5.765625 -5.601562 6.109375 -5.6875 6.484375 -5.6875 C 6.742188 -5.6875 6.992188 -5.632812 7.234375 -5.53125 C 7.472656 -5.425781 7.675781 -5.273438 7.84375 -5.078125 C 8.019531 -4.890625 8.160156 -4.65625 8.265625 -4.375 C 8.367188 -4.09375 8.421875 -3.78125 8.421875 -3.4375 L 8.421875 0 L 7.609375 0 L 7.609375 -3.4375 C 7.609375 -3.914062 7.488281 -4.285156 7.25 -4.546875 C 7.007812 -4.804688 6.703125 -4.9375 6.328125 -4.9375 C 6.140625 -4.9375 5.960938 -4.894531 5.796875 -4.8125 C 5.628906 -4.738281 5.484375 -4.632812 5.359375 -4.5 C 5.242188 -4.363281 5.148438 -4.203125 5.078125 -4.015625 C 5.015625 -3.835938 4.984375 -3.644531 4.984375 -3.4375 L 4.984375 0 L 4.1875 0 L 4.1875 -3.4375 C 4.1875 -3.914062 4.066406 -4.285156 3.828125 -4.546875 C 3.585938 -4.804688 3.273438 -4.9375 2.890625 -4.9375 C 2.722656 -4.9375 2.554688 -4.894531 2.390625 -4.8125 C 2.222656 -4.738281 2.078125 -4.632812 1.953125 -4.5 C 1.835938 -4.363281 1.738281 -4.203125 1.65625 -4.015625 C 1.582031 -3.835938 1.546875 -3.644531 1.546875 -3.4375 L 1.546875 0 L 0.75 0 Z M 0.75 -5.578125 "/></g></g></g><g fill="#000000" fill-opacity="1"><g transform="translate(52.911224, 47.897987)"><g><path d="M 0.90625 -7.5 L 3.75 -7.5 C 4.125 -7.5 4.457031 -7.4375 4.75 -7.3125 C 5.050781 -7.195312 5.304688 -7.03125 5.515625 -6.8125 C 5.722656 -6.601562 5.878906 -6.359375 5.984375 -6.078125 C 6.097656 -5.796875 6.15625 -5.484375 6.15625 -5.140625 C 6.15625 -4.804688 6.097656 -4.492188 5.984375 -4.203125 C 5.878906 -3.921875 5.722656 -3.675781 5.515625 -3.46875 C 5.304688 -3.257812 5.050781 -3.09375 4.75 -2.96875 C 4.457031 -2.84375 4.125 -2.78125 3.75 -2.78125 L 1.828125 -2.78125 L 1.828125 0 L 0.90625 0 Z M 3.703125 -3.59375 C 4.179688 -3.59375 4.554688 -3.734375 4.828125 -4.015625 C 5.109375 -4.304688 5.25 -4.679688 5.25 -5.140625 C 5.25 -5.597656 5.109375 -5.972656 4.828125 -6.265625 C 4.554688 -6.554688 4.179688 -6.703125 3.703125 -6.703125 L 1.828125 -6.703125 L 1.828125 -3.59375 Z M 3.703125 -3.59375 "/></g></g></g><g fill="#000000" fill-opacity="1"><g transform="translate(59.339252, 47.897987)"><g><path d="M 0.796875 -7.5 L 1.609375 -7.5 L 1.609375 0 L 0.796875 0 Z M 0.796875 -7.5 "/></g></g></g><g fill="#000000" fill-opacity="1"><g transform="translate(61.481884, 47.897987)"><g><path d="M 2.359375 0.109375 C 2.066406 0.109375 1.800781 0.0664062 1.5625 -0.015625 C 1.320312 -0.109375 1.117188 -0.234375 0.953125 -0.390625 C 0.785156 -0.546875 0.65625 -0.726562 0.5625 -0.9375 C 0.46875 -1.144531 0.421875 -1.367188 0.421875 -1.609375 C 0.421875 -1.847656 0.46875 -2.070312 0.5625 -2.28125 C 0.65625 -2.488281 0.789062 -2.671875 0.96875 -2.828125 C 1.144531 -2.984375 1.363281 -3.101562 1.625 -3.1875 C 1.882812 -3.28125 2.179688 -3.328125 2.515625 -3.328125 L 4.078125 -3.328125 L 4.078125 -3.703125 C 4.078125 -4.078125 3.953125 -4.375 3.703125 -4.59375 C 3.460938 -4.820312 3.140625 -4.9375 2.734375 -4.9375 C 2.378906 -4.9375 2.09375 -4.859375 1.875 -4.703125 C 1.664062 -4.554688 1.523438 -4.363281 1.453125 -4.125 L 0.59375 -4.125 C 0.726562 -4.644531 0.984375 -5.035156 1.359375 -5.296875 C 1.734375 -5.554688 2.191406 -5.6875 2.734375 -5.6875 C 3.066406 -5.6875 3.363281 -5.632812 3.625 -5.53125 C 3.894531 -5.4375 4.125 -5.300781 4.3125 -5.125 C 4.5 -4.957031 4.640625 -4.75 4.734375 -4.5 C 4.828125 -4.257812 4.875 -3.992188 4.875 -3.703125 L 4.875 0 L 4.234375 0 L 4.125 -0.75 L 4.078125 -0.75 C 4.015625 -0.65625 3.929688 -0.554688 3.828125 -0.453125 C 3.722656 -0.359375 3.597656 -0.265625 3.453125 -0.171875 C 3.304688 -0.0859375 3.140625 -0.0195312 2.953125 0.03125 C 2.773438 0.0820312 2.578125 0.109375 2.359375 0.109375 Z M 2.359375 -0.640625 C 2.617188 -0.640625 2.851562 -0.679688 3.0625 -0.765625 C 3.28125 -0.847656 3.460938 -0.957031 3.609375 -1.09375 C 3.765625 -1.238281 3.878906 -1.40625 3.953125 -1.59375 C 4.035156 -1.78125 4.078125 -1.984375 4.078125 -2.203125 L 4.078125 -2.578125 L 2.515625 -2.578125 C 2.085938 -2.578125 1.765625 -2.488281 1.546875 -2.3125 C 1.335938 -2.144531 1.234375 -1.910156 1.234375 -1.609375 C 1.234375 -1.304688 1.332031 -1.066406 1.53125 -0.890625 C 1.726562 -0.722656 2.003906 -0.640625 2.359375 -0.640625 Z M 2.359375 -0.640625 "/></g></g></g><g fill="#000000" fill-opacity="1"><g transform="translate(66.784996, 47.897987)"><g><path d="M 2.515625 0 C 2.109375 0 1.773438 -0.128906 1.515625 -0.390625 C 1.253906 -0.648438 1.125 -0.984375 1.125 -1.390625 L 1.125 -4.828125 L 0.265625 -4.828125 L 0.265625 -5.578125 L 1.125 -5.578125 L 1.234375 -7.078125 L 1.921875 -7.078125 L 1.921875 -5.578125 L 3.375 -5.578125 L 3.375 -4.828125 L 1.921875 -4.828125 L 1.921875 -1.390625 C 1.921875 -1.203125 1.984375 -1.046875 2.109375 -0.921875 C 2.234375 -0.804688 2.390625 -0.75 2.578125 -0.75 L 3.375 -0.75 L 3.375 0 Z M 2.515625 0 "/></g></g></g><g fill="#000000" fill-opacity="1"><g transform="translate(70.320382, 47.897987)"><g><path d="M 1.125 -4.828125 L 0.265625 -4.828125 L 0.265625 -5.578125 L 1.125 -5.578125 L 1.125 -6.109375 C 1.125 -6.515625 1.253906 -6.847656 1.515625 -7.109375 C 1.773438 -7.367188 2.109375 -7.5 2.515625 -7.5 L 3.375 -7.5 L 3.375 -6.75 L 2.578125 -6.75 C 2.390625 -6.75 2.234375 -6.6875 2.109375 -6.5625 C 1.984375 -6.445312 1.921875 -6.296875 1.921875 -6.109375 L 1.921875 -5.578125 L 3.375 -5.578125 L 3.375 -4.828125 L 1.921875 -4.828125 L 1.921875 0 L 1.125 0 Z M 1.125 -4.828125 "/></g></g></g><g fill="#000000" fill-opacity="1"><g transform="translate(73.6415, 47.897987)"><g><path d="M 3.0625 0.109375 C 2.675781 0.109375 2.328125 0.046875 2.015625 -0.078125 C 1.703125 -0.203125 1.429688 -0.382812 1.203125 -0.625 C 0.984375 -0.875 0.804688 -1.175781 0.671875 -1.53125 C 0.546875 -1.894531 0.484375 -2.3125 0.484375 -2.78125 C 0.484375 -3.257812 0.546875 -3.675781 0.671875 -4.03125 C 0.804688 -4.382812 0.984375 -4.6875 1.203125 -4.9375 C 1.429688 -5.1875 1.703125 -5.375 2.015625 -5.5 C 2.328125 -5.625 2.675781 -5.6875 3.0625 -5.6875 C 3.425781 -5.6875 3.765625 -5.625 4.078125 -5.5 C 4.398438 -5.375 4.671875 -5.1875 4.890625 -4.9375 C 5.117188 -4.6875 5.296875 -4.382812 5.421875 -4.03125 C 5.554688 -3.675781 5.625 -3.257812 5.625 -2.78125 C 5.625 -2.3125 5.554688 -1.894531 5.421875 -1.53125 C 5.296875 -1.175781 5.117188 -0.875 4.890625 -0.625 C 4.671875 -0.382812 4.398438 -0.203125 4.078125 -0.078125 C 3.765625 0.046875 3.425781 0.109375 3.0625 0.109375 Z M 3.0625 -0.640625 C 3.3125 -0.640625 3.539062 -0.6875 3.75 -0.78125 C 3.96875 -0.875 4.15625 -1.007812 4.3125 -1.1875 C 4.476562 -1.375 4.601562 -1.597656 4.6875 -1.859375 C 4.78125 -2.128906 4.828125 -2.4375 4.828125 -2.78125 C 4.828125 -3.132812 4.78125 -3.441406 4.6875 -3.703125 C 4.601562 -3.972656 4.476562 -4.195312 4.3125 -4.375 C 4.15625 -4.5625 3.96875 -4.703125 3.75 -4.796875 C 3.539062 -4.890625 3.3125 -4.9375 3.0625 -4.9375 C 2.800781 -4.9375 2.5625 -4.890625 2.34375 -4.796875 C 2.132812 -4.703125 1.945312 -4.5625 1.78125 -4.375 C 1.625 -4.195312 1.5 -3.972656 1.40625 -3.703125 C 1.320312 -3.441406 1.28125 -3.132812 1.28125 -2.78125 C 1.28125 -2.4375 1.320312 -2.128906 1.40625 -1.859375 C 1.5 -1.597656 1.625 -1.375 1.78125 -1.1875 C 1.945312 -1.007812 2.132812 -0.875 2.34375 -0.78125 C 2.5625 -0.6875 2.800781 -0.640625 3.0625 -0.640625 Z M 3.0625 -0.640625 "/></g></g></g><g fill="#000000" fill-opacity="1"><g transform="translate(79.480288, 47.897987)"><g><path d="M 0.75 -5.578125 L 1.390625 -5.578125 L 1.5 -4.828125 L 1.546875 -4.828125 C 1.710938 -5.097656 1.914062 -5.289062 2.15625 -5.40625 C 2.40625 -5.519531 2.707031 -5.578125 3.0625 -5.578125 L 3.640625 -5.578125 L 3.640625 -4.828125 L 3.0625 -4.828125 C 2.84375 -4.828125 2.640625 -4.789062 2.453125 -4.71875 C 2.273438 -4.644531 2.117188 -4.546875 1.984375 -4.421875 C 1.847656 -4.304688 1.738281 -4.160156 1.65625 -3.984375 C 1.582031 -3.816406 1.546875 -3.632812 1.546875 -3.4375 L 1.546875 0 L 0.75 0 Z M 0.75 -5.578125 "/></g></g></g><g fill="#000000" fill-opacity="1"><g transform="translate(83.015674, 47.897987)"><g><path d="M 0.75 -5.578125 L 1.390625 -5.578125 L 1.5 -4.828125 L 1.546875 -4.828125 C 1.734375 -5.148438 1.957031 -5.375 2.21875 -5.5 C 2.476562 -5.625 2.757812 -5.6875 3.0625 -5.6875 C 3.40625 -5.6875 3.71875 -5.59375 4 -5.40625 C 4.28125 -5.226562 4.5 -4.976562 4.65625 -4.65625 L 4.71875 -4.65625 C 4.90625 -5.007812 5.148438 -5.269531 5.453125 -5.4375 C 5.765625 -5.601562 6.109375 -5.6875 6.484375 -5.6875 C 6.742188 -5.6875 6.992188 -5.632812 7.234375 -5.53125 C 7.472656 -5.425781 7.675781 -5.273438 7.84375 -5.078125 C 8.019531 -4.890625 8.160156 -4.65625 8.265625 -4.375 C 8.367188 -4.09375 8.421875 -3.78125 8.421875 -3.4375 L 8.421875 0 L 7.609375 0 L 7.609375 -3.4375 C 7.609375 -3.914062 7.488281 -4.285156 7.25 -4.546875 C 7.007812 -4.804688 6.703125 -4.9375 6.328125 -4.9375 C 6.140625 -4.9375 5.960938 -4.894531 5.796875 -4.8125 C 5.628906 -4.738281 5.484375 -4.632812 5.359375 -4.5 C 5.242188 -4.363281 5.148438 -4.203125 5.078125 -4.015625 C 5.015625 -3.835938 4.984375 -3.644531 4.984375 -3.4375 L 4.984375 0 L 4.1875 0 L 4.1875 -3.4375 C 4.1875 -3.914062 4.066406 -4.285156 3.828125 -4.546875 C 3.585938 -4.804688 3.273438 -4.9375 2.890625 -4.9375 C 2.722656 -4.9375 2.554688 -4.894531 2.390625 -4.8125 C 2.222656 -4.738281 2.078125 -4.632812 1.953125 -4.5 C 1.835938 -4.363281 1.738281 -4.203125 1.65625 -4.015625 C 1.582031 -3.835938 1.546875 -3.644531 1.546875 -3.4375 L 1.546875 0 L 0.75 0 Z M 0.75 -5.578125 "/></g></g></g></svg>