<svg xmlns="http://www.w3.org/2000/svg" xmlns:xlink="http://www.w3.org/1999/xlink" width="100" zoomAndPan="magnify" viewBox="0 0 75 74.999997" height="100" preserveAspectRatio="xMidYMid meet" version="1.0"><defs><clipPath id="1b64718d49"><path d="M 6.285156 4.558594 L 70.785156 4.558594 L 70.785156 15.058594 L 6.285156 15.058594 Z M 6.285156 4.558594 " clip-rule="nonzero"/></clipPath><clipPath id="5cf7a8ffae"><path d="M 6.289062 4.558594 L 70.785156 4.558594 L 70.785156 15.058594 L 6.289062 15.058594 Z M 6.289062 4.558594 " clip-rule="nonzero"/></clipPath><clipPath id="fa164c513c"><path d="M 14.226562 18.324219 L 70.476562 18.324219 L 70.476562 28.824219 L 14.226562 28.824219 Z M 14.226562 18.324219 " clip-rule="nonzero"/></clipPath><clipPath id="df7026af95"><path d="M 14.234375 18.324219 L 70.472656 18.324219 L 70.472656 28.824219 L 14.234375 28.824219 Z M 14.234375 18.324219 " clip-rule="nonzero"/></clipPath><clipPath id="e6dd37a122"><path d="M 25.699219 32.378906 L 70.699219 32.378906 L 70.699219 42.878906 L 25.699219 42.878906 Z M 25.699219 32.378906 " clip-rule="nonzero"/></clipPath><clipPath id="3e540100fe"><path d="M 25.699219 32.378906 L 70.695312 32.378906 L 70.695312 42.878906 L 25.699219 42.878906 Z M 25.699219 32.378906 " clip-rule="nonzero"/></clipPath><clipPath id="c918cad39e"><path d="M 14.226562 46.371094 L 70.476562 46.371094 L 70.476562 56.871094 L 14.226562 56.871094 Z M 14.226562 46.371094 " clip-rule="nonzero"/></clipPath><clipPath id="370b07a724"><path d="M 14.234375 46.371094 L 70.472656 46.371094 L 70.472656 56.871094 L 14.234375 56.871094 Z M 14.234375 46.371094 " clip-rule="nonzero"/></clipPath><clipPath id="d05a39de91"><path d="M 6.285156 60.367188 L 70.785156 60.367188 L 70.785156 70.867188 L 6.285156 70.867188 Z M 6.285156 60.367188 " clip-rule="nonzero"/></clipPath><clipPath id="9fe365089b"><path d="M 6.289062 60.367188 L 70.785156 60.367188 L 70.785156 70.867188 L 6.289062 70.867188 Z M 6.289062 60.367188 " clip-rule="nonzero"/></clipPath></defs><g clip-path="url(#1b64718d49)"><path fill="#000000" d="M 6.289062 4.558594 L 70.785156 4.558594 L 70.785156 15.058594 L 6.289062 15.058594 L 6.289062 4.558594 " fill-opacity="1" fill-rule="nonzero"/></g><g clip-path="url(#5cf7a8ffae)"><path stroke-linecap="butt" transform="matrix(0.750273, 0, 0, 0.768879, 6.288477, 4.558822)" fill="none" stroke-linejoin="miter" d="M 0.000780828 -0.000297053 L 85.964336 -0.000297053 L 85.964336 13.655955 L 0.000780828 13.655955 L 0.000780828 -0.000297053 " stroke="#000000" stroke-width="8" stroke-opacity="1" stroke-miterlimit="4"/></g><g clip-path="url(#fa164c513c)"><path fill="#000000" d="M 14.234375 18.324219 L 70.472656 18.324219 L 70.472656 28.824219 L 14.234375 28.824219 L 14.234375 18.324219 " fill-opacity="1" fill-rule="nonzero"/></g><g clip-path="url(#df7026af95)"><path stroke-linecap="butt" transform="matrix(0.746114, 0, 0, 0.768879, 14.232669, 18.323527)" fill="none" stroke-linejoin="miter" d="M 0.0022859 0.000900176 L 75.377218 0.000900176 L 75.377218 13.657152 L 0.0022859 13.657152 L 0.0022859 0.000900176 " stroke="#000000" stroke-width="8" stroke-opacity="1" stroke-miterlimit="4"/></g><g clip-path="url(#e6dd37a122)"><path fill="#000000" d="M 25.699219 32.378906 L 70.695312 32.378906 L 70.695312 42.878906 L 25.699219 42.878906 L 25.699219 32.378906 " fill-opacity="1" fill-rule="nonzero"/></g><g clip-path="url(#3e540100fe)"><path stroke-linecap="butt" transform="matrix(0.74883, 0, 0, 0.768879, 25.701163, 32.377939)" fill="none" stroke-linejoin="miter" d="M -0.00259617 0.00125749 L 60.085946 0.00125749 L 60.085946 13.657509 L -0.00259617 13.657509 L -0.00259617 0.00125749 " stroke="#000000" stroke-width="8" stroke-opacity="1" stroke-miterlimit="4"/></g><g clip-path="url(#c918cad39e)"><path fill="#000000" d="M 14.234375 46.371094 L 70.472656 46.371094 L 70.472656 56.871094 L 14.234375 56.871094 L 14.234375 46.371094 " fill-opacity="1" fill-rule="nonzero"/></g><g clip-path="url(#370b07a724)"><path stroke-linecap="butt" transform="matrix(0.746114, 0, 0, 0.768879, 14.232669, 46.372051)" fill="none" stroke-linejoin="miter" d="M 0.0022859 -0.00124527 L 75.377218 -0.00124527 L 75.377218 13.655006 L 0.0022859 13.655006 L 0.0022859 -0.00124527 " stroke="#000000" stroke-width="8" stroke-opacity="1" stroke-miterlimit="4"/></g><g clip-path="url(#d05a39de91)"><path fill="#000000" d="M 6.289062 60.367188 L 70.785156 60.367188 L 70.785156 70.867188 L 6.289062 70.867188 L 6.289062 60.367188 " fill-opacity="1" fill-rule="nonzero"/></g><g clip-path="url(#9fe365089b)"><path stroke-linecap="butt" transform="matrix(0.750273, 0, 0, 0.768879, 6.288477, 60.366172)" fill="none" stroke-linejoin="miter" d="M 0.000780828 0.00132118 L 85.964336 0.00132118 L 85.964336 13.657573 L 0.000780828 13.657573 L 0.000780828 0.00132118 " stroke="#000000" stroke-width="8" stroke-opacity="1" stroke-miterlimit="4"/></g></svg>